<svg width="76" height="32" viewBox="0 0 76 32" fill="none" xmlns="http://www.w3.org/2000/svg">
<path d="M43.424 22.48C44.024 22.48 44.528 22.408 44.936 22.264C45.344 22.12 45.668 21.928 45.908 21.688C46.156 21.448 46.332 21.168 46.436 20.848C46.548 20.528 46.604 20.188 46.604 19.828C46.604 19.452 46.544 19.116 46.424 18.82C46.304 18.516 46.116 18.26 45.86 18.052C45.604 17.836 45.272 17.672 44.864 17.56C44.464 17.448 43.98 17.392 43.412 17.392H40.16V22.48H43.424ZM40.16 10.144V15.16H42.728C43.832 15.16 44.664 14.96 45.224 14.56C45.792 14.16 46.076 13.524 46.076 12.652C46.076 11.748 45.82 11.104 45.308 10.72C44.796 10.336 43.996 10.144 42.908 10.144H40.16ZM42.908 7.648C44.044 7.648 45.016 7.756 45.824 7.972C46.632 8.188 47.292 8.496 47.804 8.896C48.324 9.296 48.704 9.78 48.944 10.348C49.184 10.916 49.304 11.556 49.304 12.268C49.304 12.676 49.244 13.068 49.124 13.444C49.004 13.812 48.816 14.16 48.56 14.488C48.312 14.808 47.992 15.1 47.6 15.364C47.216 15.628 46.756 15.852 46.22 16.036C48.604 16.572 49.796 17.86 49.796 19.9C49.796 20.636 49.656 21.316 49.376 21.94C49.096 22.564 48.688 23.104 48.152 23.56C47.616 24.008 46.956 24.36 46.172 24.616C45.388 24.872 44.492 25 43.484 25H36.932V7.648H42.908ZM56.1689 25H52.9289V7.648H56.1689V25ZM72.2059 8.836C72.2059 9.204 72.1019 9.54 71.8939 9.844L62.9899 22.42H72.0019V25H58.8019V23.728C58.8019 23.568 58.8299 23.416 58.8859 23.272C58.9419 23.12 59.0139 22.98 59.1019 22.852L68.0299 10.216H59.3659V7.648H72.2059V8.836Z" fill="#A363BB"/>
<path d="M14.4339 30L12.341 28.0578C4.90754 21.1864 0 16.6545 0 11.0926C0 6.56076 3.49301 3 7.93867 3C10.4502 3 12.8606 4.19183 14.4339 6.0752C16.0072 4.19183 18.4177 3 20.9292 3C25.3749 3 28.8679 6.56076 28.8679 11.0926C28.8679 16.6545 23.9603 21.1864 16.5269 28.0725L14.4339 30Z" fill="#A363BB"/>
</svg>
